<svg xmlns="http://www.w3.org/2000/svg" viewBox="0 0 280 200" role="img" aria-label="Teaching insights with lightbulb and notes">
  <defs>
    <linearGradient id="bgI" x1="0" y1="0" x2="1" y2="1"><stop offset="0%" stop-color="#f2f4f7"/><stop offset="100%" stop-color="#e8f4f5"/></linearGradient>
  </defs>
  <rect width="280" height="200" rx="16" fill="url(#bgI)"/>
  <!-- Lightbulb -->
  <g transform="translate(140,55)">
    <circle cx="0" cy="0" r="32" fill="#c9a227" opacity=".15"/>
    <circle cx="0" cy="0" r="22" fill="#c9a227" opacity=".25"/>
    <path d="M0-18 C-12-18-18-8-18 2 C-18 10-10 16-8 22 H8 C10 16 18 10 18 2 C18-8 12-18 0-18Z" fill="#c9a227" opacity=".6"/>
    <rect x="-6" y="22" width="12" height="6" rx="2" fill="#16223a" opacity=".3"/>
    <rect x="-4" y="28" width="8" height="3" rx="1.5" fill="#16223a" opacity=".25"/>
    <!-- Filament lines -->
    <line x1="-4" y1="8" x2="-4" y2="16" stroke="#ffffff" stroke-width="1.5" opacity=".6"/>
    <line x1="0" y1="5" x2="0" y2="16" stroke="#ffffff" stroke-width="1.5" opacity=".6"/>
    <line x1="4" y1="8" x2="4" y2="16" stroke="#ffffff" stroke-width="1.5" opacity=".6"/>
    <!-- Rays -->
    <line x1="0" y1="-28" x2="0" y2="-36" stroke="#c9a227" stroke-width="2" stroke-linecap="round" opacity=".4"/>
    <line x1="22" y1="-16" x2="28" y2="-22" stroke="#c9a227" stroke-width="2" stroke-linecap="round" opacity=".35"/>
    <line x1="-22" y1="-16" x2="-28" y2="-22" stroke="#c9a227" stroke-width="2" stroke-linecap="round" opacity=".35"/>
    <line x1="28" y1="4" x2="36" y2="4" stroke="#c9a227" stroke-width="2" stroke-linecap="round" opacity=".3"/>
    <line x1="-28" y1="4" x2="-36" y2="4" stroke="#c9a227" stroke-width="2" stroke-linecap="round" opacity=".3"/>
  </g>
  <!-- Clipboard left -->
  <g transform="translate(30,70)">
    <rect x="0" y="0" width="50" height="65" rx="6" fill="#ffffff" stroke="#1f5f63" stroke-width="1.5" opacity=".7"/>
    <rect x="12" y="-4" width="26" height="8" rx="4" fill="#1f5f63" opacity=".4"/>
    <rect x="8" y="14" width="34" height="2.5" rx="1" fill="#16223a" opacity=".2"/>
    <rect x="8" y="22" width="28" height="2.5" rx="1" fill="#16223a" opacity=".15"/>
    <rect x="8" y="30" width="32" height="2.5" rx="1" fill="#c9a227" opacity=".3"/>
    <rect x="8" y="38" width="24" height="2.5" rx="1" fill="#16223a" opacity=".15"/>
    <circle cx="12" cy="50" r="5" fill="#1f5f63" opacity=".2"/>
    <path d="M10 50l2 2 4-4" fill="none" stroke="#1f5f63" stroke-width="1.5" opacity=".5"/>
  </g>
  <!-- Chart right -->
  <g transform="translate(200,75)">
    <rect x="0" y="0" width="55" height="55" rx="6" fill="#ffffff" stroke="#1f5f63" stroke-width="1.5" opacity=".6"/>
    <rect x="10" y="30" width="8" height="16" rx="2" fill="#1f5f63" opacity=".4"/>
    <rect x="22" y="20" width="8" height="26" rx="2" fill="#c9a227" opacity=".5"/>
    <rect x="34" y="12" width="8" height="34" rx="2" fill="#1f5f63" opacity=".6"/>
    <line x1="8" y1="48" x2="48" y2="48" stroke="#16223a" stroke-width="1" opacity=".2"/>
  </g>
  <!-- Floating tags -->
  <rect x="30" y="150" width="56" height="18" rx="9" fill="#1f5f63" opacity=".12"/>
  <text x="40" y="163" font-family="Inter,Arial,sans-serif" font-size="9" font-weight="700" fill="#1f5f63" opacity=".5">ELD tips</text>
  <rect x="100" y="155" width="70" height="18" rx="9" fill="#c9a227" opacity=".12"/>
  <text x="108" y="168" font-family="Inter,Arial,sans-serif" font-size="9" font-weight="700" fill="#c9a227" opacity=".6">scaffolding</text>
  <rect x="185" y="150" width="62" height="18" rx="9" fill="#1f5f63" opacity=".12"/>
  <text x="193" y="163" font-family="Inter,Arial,sans-serif" font-size="9" font-weight="700" fill="#1f5f63" opacity=".5">feedback</text>
</svg>
